<svg width="1248" height="1080" viewBox="0 0 1248 1080" fill="none" xmlns="http://www.w3.org/2000/svg">
    <g clip-path="url(#clip0_103_38)">
        <path d="M725.255 326H128.17L195.982 208.545H357.43L360.894 202.545L280.17 62.7273L314.077 4H381.889L498.829 206.545L502.293 208.545H657.443L725.255 326ZM974.671 598.727L971.207 600.727L893.631 735.091H758.007L1056.55 218.001L1124.36 335.455L1043.64 475.273L1047.1 481.273H1208.55L1242.45 540L1208.55 598.727H974.671ZM387.347 558.909L685.89 1076H550.265L469.541 936.182H462.613L381.889 1076H314.077L280.17 1017.27L397.11 814.727V810.727L319.535 676.364L387.347 558.909Z"
              fill="#F58634" stroke="#F58634" stroke-width="8" stroke-linejoin="bevel"/>
        <path d="M859.725 521.091L561.183 4H696.807L777.531 143.818L780.995 149.818L784.46 143.818L865.184 4H932.996L966.902 62.7273L849.963 265.273L848.808 267.273L849.963 269.273L927.537 403.636L859.725 521.091ZM489.066 344.909L190.523 861.999L122.711 744.545L203.435 604.727L206.899 598.727H199.971H38.5222L4.61871 540L38.5222 481.273H272.402H274.712L275.866 479.273L353.441 344.909H489.066ZM521.818 754H1118.9L1051.09 871.455H889.642H882.714L886.178 877.455L966.902 1017.27L932.996 1076H865.184L748.244 873.455L747.089 871.455H744.78H589.63L521.818 754Z"
              fill="#4051B5" stroke="#4051B5" stroke-width="8"/>
        <circle cx="615.228" cy="500.955" r="75.635" transform="rotate(0.20246 615.228 500.955)" stroke="#F58634"
                stroke-width="30"/>
        <rect x="658.075" y="555.575" width="119.847" height="29" rx="14.5" transform="rotate(56.9966 658.075 555.575)"
              fill="#F58634" stroke="#F58634"/>
    </g>
</svg>
